<?xml version="1.0" standalone="no"?><!DOCTYPE svg PUBLIC "-//W3C//DTD SVG 1.1//EN" "http://www.w3.org/Graphics/SVG/1.1/DTD/svg11.dtd">
<svg t="1685775613719" class="icon" viewBox="0 0 1024 1024" version="1.1" xmlns="http://www.w3.org/2000/svg" p-id="2531"
     width="256" height="256"><path d="M374.870239 217.983397c24.179935 4.461988 17.455953 40.915891-6.725982 36.453902C176.35077 218.793395 41.977129 294.591192 143.704857 482.27469c12.157967 21.313943-20.095946 39.709894-32.251914 18.39395C-9.672733 288.481208 147.390847 174.905512 374.870239 217.981397z m483.708705 359.903037c171.449541-209.655439 95.945743-365.569022-110.199705-368.119015-24.483934-0.319999-24.935933 36.743902-0.451999 37.063901 182.473512-0.779998 225.887396 134.207641 82.24778 307.173178-15.829958 19.247948 13.163965 42.169887 28.403924 23.879936z m-180.341517 328.83912c12.529966-20.801944-18.66795-40.191892-31.805915-19.155949-103.727722 164.139561-230.515383 113.569696-307.251178-84.355774-8.295978-23.579937-43.329884-11.25197-35.033906 12.325967 67.885818 207.337445 247.913337 298.685201 374.090999 91.187756z m-113.619696-369.211012c0-39.991893-43.589883-65.121826-78.273791-45.12588-34.685907 19.995946-34.685907 70.257812 0 90.253759 34.683907 19.995946 78.273791-5.133986 78.273791-45.127879z m-455.696781 168.479549c6.043984-164.757559 246.043342-374.912997 529.066584-447.228803 24.301935-5.281986 16.427956-41.503889-7.875978-36.219903C368.698255 280.42123 58.571085 512.804608 71.60705 716.182064c-45.311879 27.345927-44.83988 93.719749 1.389996 120.275678C119.690921 863.27967 178.370764 829.57176 178.370764 775.929904c0-40.319892-33.153911-69.377814-69.449814-69.933813z m768.595944 128.461656c33.367911 21.709942 81.629782 11.767969 101.107729-27.199927 23.975936-47.965872-13.429964-104.335721-67.16982-101.223729-50.451865 2.921992-80.155786 56.253849-58.967842 99.879733-163.005564 70.91781-465.786754-47.743872-643.808278-236.369368-16.291956-17.973952-43.789883 6.947981-27.499926 24.923933 168.849548 186.7055 511.93663 337.679096 696.338137 239.989358z m-294.859211-764.597954c0.016-45.859877-45.801877-81.425782-92.193754-66.339822-51.189863 16.649955-65.033826 82.599779-24.859933 118.429683 33.79991 30.139919 84.691773 20.107946 106.555715-15.07996 126.667661 83.739776 205.269451 369.92301 121.515674 672.8122-7.243981 23.445937 28.245924 34.411908 35.489906 10.96597C805.269087 544.820522 764.099197 180.781496 582.657683 69.855793z" fill="#67D7F3" p-id="2532"></path></svg>